<?xml version="1.0" encoding="UTF-8"?>
<svg width="600" height="400" viewBox="0 0 600 400" fill="none" xmlns="http://www.w3.org/2000/svg">
  <!-- Sky background -->
  <rect width="600" height="400" fill="url(#skyGradient)" />
  
  <!-- Ground -->
  <rect x="0" y="350" width="600" height="50" fill="#90EE90" />
  
  <!-- Main building -->
  <rect x="100" y="150" width="400" height="200" fill="#E5E5E5" stroke="#B0B0B0" stroke-width="2" />
  
  <!-- Building roof -->
  <polygon points="80,150 300,80 520,150" fill="#8B4513" stroke="#654321" stroke-width="2" />
  
  <!-- Windows rows -->
  <!-- First row -->
  <rect x="130" y="180" width="30" height="25" fill="#87CEEB" stroke="#4682B4" stroke-width="1" />
  <rect x="180" y="180" width="30" height="25" fill="#87CEEB" stroke="#4682B4" stroke-width="1" />
  <rect x="230" y="180" width="30" height="25" fill="#87CEEB" stroke="#4682B4" stroke-width="1" />
  <rect x="280" y="180" width="30" height="25" fill="#87CEEB" stroke="#4682B4" stroke-width="1" />
  <rect x="330" y="180" width="30" height="25" fill="#87CEEB" stroke="#4682B4" stroke-width="1" />
  <rect x="380" y="180" width="30" height="25" fill="#87CEEB" stroke="#4682B4" stroke-width="1" />
  <rect x="430" y="180" width="30" height="25" fill="#87CEEB" stroke="#4682B4" stroke-width="1" />
  
  <!-- Second row -->
  <rect x="130" y="220" width="30" height="25" fill="#87CEEB" stroke="#4682B4" stroke-width="1" />
  <rect x="180" y="220" width="30" height="25" fill="#87CEEB" stroke="#4682B4" stroke-width="1" />
  <rect x="230" y="220" width="30" height="25" fill="#87CEEB" stroke="#4682B4" stroke-width="1" />
  <rect x="280" y="220" width="30" height="25" fill="#87CEEB" stroke="#4682B4" stroke-width="1" />
  <rect x="330" y="220" width="30" height="25" fill="#87CEEB" stroke="#4682B4" stroke-width="1" />
  <rect x="380" y="220" width="30" height="25" fill="#87CEEB" stroke="#4682B4" stroke-width="1" />
  <rect x="430" y="220" width="30" height="25" fill="#87CEEB" stroke="#4682B4" stroke-width="1" />
  
  <!-- Third row -->
  <rect x="130" y="260" width="30" height="25" fill="#87CEEB" stroke="#4682B4" stroke-width="1" />
  <rect x="180" y="260" width="30" height="25" fill="#87CEEB" stroke="#4682B4" stroke-width="1" />
  <rect x="230" y="260" width="30" height="25" fill="#87CEEB" stroke="#4682B4" stroke-width="1" />
  <rect x="280" y="260" width="30" height="25" fill="#87CEEB" stroke="#4682B4" stroke-width="1" />
  <rect x="330" y="260" width="30" height="25" fill="#87CEEB" stroke="#4682B4" stroke-width="1" />
  <rect x="380" y="260" width="30" height="25" fill="#87CEEB" stroke="#4682B4" stroke-width="1" />
  <rect x="430" y="260" width="30" height="25" fill="#87CEEB" stroke="#4682B4" stroke-width="1" />
  
  <!-- Fourth row -->
  <rect x="130" y="300" width="30" height="25" fill="#87CEEB" stroke="#4682B4" stroke-width="1" />
  <rect x="180" y="300" width="30" height="25" fill="#87CEEB" stroke="#4682B4" stroke-width="1" />
  <rect x="230" y="300" width="30" height="25" fill="#87CEEB" stroke="#4682B4" stroke-width="1" />
  <rect x="280" y="300" width="30" height="25" fill="#87CEEB" stroke="#4682B4" stroke-width="1" />
  <rect x="330" y="300" width="30" height="25" fill="#87CEEB" stroke="#4682B4" stroke-width="1" />
  <rect x="380" y="300" width="30" height="25" fill="#87CEEB" stroke="#4682B4" stroke-width="1" />
  <rect x="430" y="300" width="30" height="25" fill="#87CEEB" stroke="#4682B4" stroke-width="1" />
  
  <!-- Main entrance -->
  <rect x="275" y="290" width="50" height="60" fill="#8B4513" stroke="#654321" stroke-width="2" />
  <circle cx="315" cy="320" r="3" fill="#FFD700" />
  
  <!-- Building sign -->
  <rect x="250" y="160" width="100" height="15" fill="#6B46C1" />
  <text x="300" y="172" font-family="Inter, sans-serif" font-size="10" font-weight="600" fill="white" text-anchor="middle">ОБЩЕЖИТИЕ №2</text>
  
  <!-- Trees -->
  <circle cx="50" cy="320" r="25" fill="#228B22" />
  <rect x="45" y="320" width="10" height="30" fill="#8B4513" />
  
  <circle cx="550" cy="330" r="20" fill="#228B22" />
  <rect x="546" y="330" width="8" height="20" fill="#8B4513" />
  
  <!-- Clouds -->
  <ellipse cx="150" cy="80" rx="30" ry="15" fill="white" opacity="0.8" />
  <ellipse cx="450" cy="60" rx="40" ry="20" fill="white" opacity="0.8" />
  
  <!-- Sun -->
  <circle cx="500" cy="80" r="20" fill="#FFD700" opacity="0.8" />
  
  <!-- Gradients -->
  <defs>
    <linearGradient id="skyGradient" x1="0%" y1="0%" x2="0%" y2="100%">
      <stop offset="0%" stop-color="#87CEEB" />
      <stop offset="100%" stop-color="#98D8E8" />
    </linearGradient>
  </defs>
</svg> 